<svg width="652" height="652" viewBox="0 0 652 652" fill="none" xmlns="http://www.w3.org/2000/svg">
<path d="M298.4 78.6166C313.654 83.063 326.437 94.9201 331.501 109.309C337.924 127.774 333.662 146.857 320.015 160.505C310.134 170.262 298.832 175.017 285.061 175.017C251.342 175.079 227.875 141.299 239.485 109.371C245.105 93.8085 259.247 81.4574 275.55 77.8138C281.355 76.5169 292.472 76.8874 298.4 78.6166ZM279.071 185.824C290.989 188.356 301.364 197.867 304.205 208.983C304.699 211.082 308.157 239.737 310.566 262.278L310.751 264.007L359.847 263.822C386.834 263.76 410.733 263.698 412.957 263.636C418.268 263.636 421.973 264.81 425.617 267.527C434.324 274.197 435.003 286.609 427.099 294.329C421.973 299.393 424.752 299.146 366.146 299.146H314.58L314.951 301.431C315.136 302.728 316.186 311.435 317.236 320.76C318.347 330.085 319.397 337.928 319.644 338.175C319.829 338.422 336.812 338.731 357.377 338.793C377.941 338.855 403.076 339.102 413.265 339.287L431.792 339.596L435.683 341.695C443.032 345.71 445.996 349.724 454.827 368.003C468.598 396.411 501.823 462.675 502.44 463.045C502.811 463.292 505.22 462.366 507.875 461.069C510.53 459.71 518.126 456.067 524.796 452.979C534.615 448.471 537.518 447.359 539.803 447.359C546.905 447.359 552.215 452.3 553.759 460.328C554.624 465.021 553.204 469.159 549.251 472.988C545.855 476.261 546.102 476.137 500.65 497.628C483.79 505.595 481.629 506.151 477.429 503.989C474.342 502.383 473.23 500.593 464.955 484.721C449.516 454.955 429.631 416.667 422.035 401.969C415.612 389.741 413.945 386.962 412.216 385.912C410.239 384.677 408.819 384.677 344.408 384.369L278.638 384.06L274.933 382.578C266.596 379.243 261.161 374.302 257.58 366.768C255.109 361.642 255.789 366.336 247.39 295.44C237.015 207.624 237.818 215.405 238.991 210.465C240.597 204.042 242.944 199.905 247.76 195.026C256.097 186.627 267.337 183.292 279.071 185.824ZM229.543 269.997C229.543 270.244 230.531 277.84 231.766 286.795L233.927 303.16L232.445 304.395C231.642 305.074 228.616 307.298 225.775 309.335C219.415 313.844 204.532 328.541 199.468 335.273C185.017 354.479 176.371 376.093 173.901 399.066C172.974 408.083 173.468 422.657 175.136 431.92C181.991 471.012 208.113 505.533 244.055 523.133C273.698 537.584 305.811 539.622 337.615 529.124C378.003 515.723 408.448 482.622 419.132 440.319C420.429 435.317 421.602 431.426 421.726 431.673C421.911 431.982 426.728 440.937 432.41 451.62L442.785 471.012L438.091 480.337C424.814 506.892 404.743 529.185 379.609 545.18C373.495 549.071 358.056 556.605 350.336 559.446C343.049 562.101 330.142 565.374 320.632 566.98C311.06 568.524 285.987 568.524 275.983 566.98C235.78 560.557 200.209 539.931 175.136 508.497C157.412 486.265 146.358 461.007 142.097 432.847C140.553 422.595 140.491 399.993 142.035 389.927C144.567 373.253 149.322 358.184 156.98 342.683C171.431 313.226 193.23 289.821 221.329 273.641C228.493 269.565 229.543 269.071 229.543 269.997Z" fill="#8D885A"/>
<path d="M266.873 641.942C266.469 644.114 267.905 646.205 270.081 646.582C351.961 660.77 436.23 643.124 505.585 597.165C576.052 550.469 625.602 478.201 643.761 395.639C661.919 313.077 647.263 226.688 602.891 154.734C558.519 82.7802 487.908 30.8985 405.982 10.0554C324.056 -10.7878 237.235 1.041 163.871 43.0414C90.5076 85.0419 36.3492 153.923 12.8437 235.125C-10.6619 316.327 -1.67269 403.487 37.9113 478.182C76.8701 551.698 142.46 607.47 221.165 634.137C223.258 634.846 225.518 633.695 226.201 631.594L228.36 624.956C150.678 599.695 85.8627 545.218 47.6134 473.041C9.36396 400.864 0.677809 316.642 23.3909 238.178C46.1039 159.714 98.4364 93.155 169.327 52.5706C240.217 11.9862 324.111 0.556206 403.274 20.6966C482.438 40.837 550.669 90.9695 593.545 160.498C636.421 230.026 650.583 313.502 633.037 393.28C615.491 473.059 567.611 542.89 499.519 588.012C431.427 633.135 348.458 650.013 268.149 635.079L266.873 641.942Z" fill="#52552B"/>
</svg>
