<svg width="652" height="652" viewBox="0 0 652 652" fill="none" xmlns="http://www.w3.org/2000/svg">
<path d="M266.873 641.942C266.469 644.114 267.905 646.205 270.081 646.582C351.961 660.77 436.23 643.124 505.585 597.165C576.052 550.469 625.602 478.201 643.761 395.639C661.919 313.077 647.263 226.688 602.891 154.734C558.519 82.7802 487.908 30.8985 405.982 10.0554C324.056 -10.7878 237.235 1.041 163.871 43.0414C90.5076 85.0419 36.3492 153.923 12.8437 235.125C-10.6619 316.327 -1.67269 403.487 37.9113 478.182C76.8701 551.698 142.46 607.47 221.165 634.137C223.258 634.846 225.518 633.695 226.201 631.594L228.36 624.956C150.678 599.695 85.8627 545.218 47.6134 473.041C9.36396 400.864 0.677809 316.642 23.3909 238.178C46.1039 159.714 98.4364 93.155 169.327 52.5706C240.217 11.9862 324.111 0.556206 403.274 20.6966C482.438 40.837 550.669 90.9695 593.545 160.498C636.421 230.026 650.583 313.502 633.037 393.28C615.491 473.059 567.611 542.89 499.519 588.012C431.427 633.135 348.458 650.013 268.149 635.079L266.873 641.942Z" fill="#52552B"/>
<path d="M200.694 134.853C188.694 137.387 174.96 148.987 169.76 161.12C160.694 182.32 169.894 207.787 190.427 218.587C196.56 221.787 198.694 222.187 210.56 222.187C226.294 222.187 231.76 220.053 242.027 209.387C256.027 194.987 257.627 169.92 245.76 152.587C236.16 138.72 217.494 131.387 200.694 134.853Z" fill="#8D885A"/>
<path d="M446.827 134.987C434.294 138.053 423.36 146.853 416.96 159.12C413.76 165.253 413.36 167.653 413.36 178.187C413.36 188.987 413.76 190.987 417.494 198.32C425.36 213.387 437.627 221.653 454.16 222.587C469.494 223.52 477.627 220.453 488.16 210.053C497.627 200.453 500.827 192.453 500.694 178.453C500.56 164.72 495.76 153.787 486.294 145.52C476.294 136.587 458.96 131.92 446.827 134.987Z" fill="#8D885A"/>
<path d="M183.76 236.187C173.36 239.521 163.36 248.32 158.427 258.187C153.76 267.787 152.694 281.787 152.56 331.654C152.56 374.721 153.227 379.654 160.96 389.787C163.36 392.854 168.16 396.854 171.894 398.72C178.427 402.187 178.96 402.187 216.56 402.854C257.227 403.52 259.094 403.92 261.627 410.454C262.427 412.454 265.894 432.454 269.227 454.854C272.56 477.254 276.027 497.121 276.827 499.121C278.827 504.587 287.494 511.654 292.96 512.721C299.76 514.054 307.627 511.521 312.56 506.587C320.427 498.721 320.694 494.854 315.894 464.454C314.027 452.987 310.694 431.254 308.427 416.187C306.294 401.12 303.627 386.187 302.56 382.987C299.76 374.587 294.694 368.721 286.827 364.587C280.16 361.12 278.827 360.854 254.56 360.187L229.227 359.52L228.827 333.654L228.56 307.654L238.294 317.254C243.76 322.454 249.76 327.387 251.76 328.187C256.827 330.054 267.894 329.921 283.76 327.52C291.094 326.454 304.694 324.587 313.76 323.52C331.627 321.254 335.094 319.921 341.227 313.52C344.694 309.921 345.227 308.32 345.227 302.187C345.227 293.921 342.294 288.987 334.96 284.987C330.294 282.32 330.16 282.32 303.094 285.921C288.16 287.921 274.027 289.52 271.894 289.52C268.294 289.52 264.694 286.32 244.827 265.654C227.094 247.12 220.294 240.854 214.56 238.187C204.827 233.387 194.427 232.72 183.76 236.187Z" fill="#8D885A"/>
<path d="M458.827 236.054C448.96 239.254 440.827 246.054 435.894 254.987L431.894 262.187L431.227 304.854L430.56 347.52L402.427 348.187L374.294 348.854L367.894 352.854C360.294 357.52 354.294 365.52 352.56 372.987C351.894 375.787 351.227 404.187 351.227 436.054C351.227 492.454 351.36 494.187 354.027 499.92C362.16 516.72 386.16 517.52 395.894 501.254C398.427 497.12 398.56 493.92 398.96 451.52C399.227 423.787 399.894 405.654 400.694 404.854C401.494 404.054 418.427 403.254 442.96 402.854L483.894 402.187L491.227 398.054C495.227 395.787 500.56 391.387 502.827 388.32C510.96 377.654 511.36 374.187 510.96 316.587C510.56 265.787 510.56 264.72 507.494 258.054C499.094 239.387 477.76 229.787 458.827 236.054Z" fill="#8D885A"/>
<path d="M111.894 275.387C106.16 281.12 105.627 286.587 106.16 338.053C106.694 382.853 106.96 386.72 109.494 393.653C113.894 405.653 116.427 409.653 124.96 418.453L132.96 426.853L130.694 435.12C129.36 439.787 126.96 448.053 125.227 453.52C117.76 477.387 111.227 500.72 111.227 503.653C111.227 508.453 116.827 513.52 122.16 513.52C131.76 513.52 131.494 514.053 147.76 459.787C150.96 448.853 153.894 439.653 154.294 439.253C154.694 438.987 157.227 439.253 160.16 440.053C162.96 440.853 175.494 441.52 187.894 441.52C200.427 441.52 211.894 441.92 213.494 442.32C216.427 443.12 216.427 443.387 216.827 475.12L217.227 507.12L220.96 510.32C226.294 514.987 232.96 514.587 238.027 509.52L242.027 505.653L241.627 466.32C241.227 428.853 241.094 426.853 238.427 423.253C231.76 414.32 230.427 413.92 196.294 412.987C179.227 412.453 163.094 411.387 160.56 410.587C154.16 408.72 147.76 403.653 143.627 397.387C137.36 387.787 136.56 380.853 136.56 329.253V281.653L132.427 276.853C128.694 272.72 127.627 272.187 121.76 272.187C116.56 272.187 114.427 272.853 111.894 275.387Z" fill="#8D885A"/>
<path d="M546.133 275.387C551.867 281.12 552.4 286.587 551.867 338.053C551.333 382.853 551.067 386.72 548.533 393.653C544.133 405.653 541.6 409.653 533.067 418.453L525.067 426.853L527.333 435.12C528.667 439.787 531.067 448.053 532.8 453.52C540.267 477.387 546.8 500.72 546.8 503.653C546.8 508.453 541.2 513.52 535.867 513.52C526.267 513.52 526.533 514.053 510.267 459.787C507.067 448.853 504.133 439.653 503.733 439.253C503.333 438.987 500.8 439.253 497.867 440.053C495.067 440.853 482.533 441.52 470.133 441.52C457.6 441.52 446.133 441.92 444.533 442.32C441.6 443.12 441.6 443.387 441.2 475.12L440.8 507.12L437.067 510.32C431.733 514.987 425.067 514.587 420 509.52L416 505.653L416.4 466.32C416.8 428.853 416.933 426.853 419.6 423.253C426.267 414.32 427.6 413.92 461.733 412.987C478.8 412.453 494.933 411.387 497.467 410.587C503.867 408.72 510.267 403.653 514.4 397.387C520.667 387.787 521.467 380.853 521.467 329.253V281.653L525.6 276.853C529.333 272.72 530.4 272.187 536.267 272.187C541.467 272.187 543.6 272.853 546.133 275.387Z" fill="#8D885A"/>
</svg>
