<svg width="652" height="652" viewBox="0 0 652 652" fill="none" xmlns="http://www.w3.org/2000/svg">
<path d="M312.811 152.073C307.366 154.796 292.463 162.39 279.996 168.982C267.529 175.717 243.311 188.471 226.402 197.355C209.493 206.24 187.568 217.847 177.68 223.149C167.793 228.451 146.585 239.772 130.392 248.227C99.0093 264.706 96 266.569 96 270.581C96 273.017 103.595 280.469 106.031 280.469C106.747 280.469 115.489 284.911 125.663 290.213C135.694 295.659 156.615 306.693 171.948 314.861C187.281 323.029 200.608 330.48 201.611 331.34C202.614 332.343 215.798 339.795 230.988 347.819C246.177 355.987 272.544 370.031 289.454 379.202C314.101 392.385 321.409 395.681 325.995 395.681C330.58 395.681 338.749 391.956 367.552 376.623C387.327 366.162 414.41 351.689 427.737 344.524C441.207 337.359 452.385 331.053 452.815 330.48C453.818 329.191 499.53 304.83 501.106 304.83C501.68 304.83 501.966 321.452 501.536 341.658C500.963 374.616 500.533 379.059 498.097 382.641C494.515 387.943 494.801 397.258 498.67 402.56L501.68 406.715L495.088 432.796C491.362 447.126 488.353 461.885 488.353 465.611C488.209 485.1 510.707 496.134 527.473 484.957C533.062 481.231 538.794 470.913 538.794 464.608C538.651 462.315 535.641 448.272 531.916 433.656C525.181 407.145 525.181 406.859 527.76 403.276C529.336 401.413 530.769 396.971 531.199 393.532C531.772 388.373 531.199 386.224 528.19 381.781L524.464 376.336L524.751 333.919L525.181 291.646L538.651 284.195C553.697 275.883 557.136 272.301 554.7 267.715C552.551 263.846 554.127 264.706 451.382 211.255C350.069 158.665 331.87 149.494 326.568 148.204C323.989 147.487 319.976 148.634 312.811 152.073Z" fill="#8D885A"/>
<path d="M176.821 348.393C176.391 349.396 176.248 370.461 176.534 395.252C176.964 445.693 176.677 443.83 188.141 456.297C203.618 473.206 236.29 488.396 272.544 495.704C286.731 498.57 292.893 499 322.413 499C351.072 499 358.667 498.57 373.427 495.704C406.959 489.542 436.479 476.645 453.674 460.596C469.294 446.123 469.151 446.123 469.724 394.678C470.01 363.726 469.724 350.686 468.578 350.686C467.718 350.686 451.812 358.854 433.039 368.741C337.602 419.612 336.886 420.042 328.001 420.615C317.827 421.332 322.556 423.625 203.761 360.573C185.705 350.972 177.251 347.246 176.821 348.393Z" fill="#8D885A"/>
<path d="M266.873 641.942C266.469 644.114 267.905 646.205 270.081 646.582C351.961 660.77 436.23 643.124 505.585 597.165C576.052 550.469 625.602 478.201 643.761 395.639C661.919 313.077 647.263 226.688 602.891 154.734C558.519 82.7802 487.908 30.8985 405.982 10.0554C324.056 -10.7878 237.235 1.041 163.871 43.0414C90.5076 85.0419 36.3492 153.923 12.8437 235.125C-10.6619 316.327 -1.67269 403.487 37.9113 478.182C76.8701 551.698 142.46 607.47 221.165 634.137C223.258 634.846 225.518 633.695 226.201 631.594L228.36 624.956C150.678 599.695 85.8627 545.218 47.6134 473.041C9.36396 400.864 0.677809 316.642 23.3909 238.178C46.1039 159.714 98.4364 93.155 169.327 52.5706C240.217 11.9862 324.111 0.556206 403.274 20.6966C482.438 40.837 550.669 90.9695 593.545 160.498C636.421 230.026 650.583 313.502 633.037 393.28C615.491 473.059 567.611 542.89 499.519 588.012C431.427 633.135 348.458 650.013 268.149 635.079L266.873 641.942Z" fill="#52552B"/>
</svg>
